<svg width="32" height="32" viewBox="0 0 32 32" fill="none" xmlns="http://www.w3.org/2000/svg">
<rect width="32" height="32" fill="white"/>
<path d="M29.2926 19.087C30.7878 19.087 31.9999 17.875 31.9999 16.3799C31.9999 14.8848 30.7878 13.6727 29.2926 13.6727C27.7973 13.6727 26.5852 14.8848 26.5852 16.3799C26.5852 17.875 27.7973 19.087 29.2926 19.087Z" fill="url(#paint0_linear_324_75)"/>
<path d="M7.14217 21.3493C5.64694 21.3493 4.43481 22.5613 4.43481 24.0565C4.43481 25.5516 5.64694 26.7636 7.14217 26.7636C7.6326 26.7636 8.09257 26.6332 8.48931 26.4052V26.4062C10.3141 25.3488 12.6351 25.2596 14.5996 26.3718C15.0057 26.6185 15.4819 26.7614 15.9913 26.7636L16.0035 26.7636C17.4972 26.7636 18.7084 25.5541 18.7108 24.061L18.7134 24.0625L18.7134 24.0646L18.7147 24.0633L18.7134 24.0625C18.7101 21.9483 19.8 19.8906 21.7539 18.748C21.7636 18.7425 21.7733 18.7371 21.7829 18.7315H21.7849L21.7839 18.731C22.5959 18.2636 23.1425 17.3872 23.1425 16.3831C23.1425 14.888 21.9304 13.676 20.4352 13.676C18.9399 13.676 17.7278 14.888 17.7278 16.3831L17.7278 16.3879L17.7266 16.3871V16.3899C17.7266 18.6669 16.4864 20.6531 14.6455 21.712H14.6431C12.6708 22.8531 10.329 22.7705 8.48931 21.7052V21.7077C8.09257 21.4797 7.6326 21.3493 7.14217 21.3493Z" fill="url(#paint1_linear_324_75)"/>
<path d="M16.014 6.00003L16.0278 6C16.5401 6 17.0192 6.14228 17.4276 6.38948C19.393 7.50411 21.7159 7.41559 23.542 6.35742V6.3584C23.9387 6.13039 24.3987 6 24.8891 6C26.3843 6 27.5964 7.21204 27.5964 8.70716C27.5964 10.2023 26.3843 11.4143 24.8891 11.4143C24.3987 11.4143 23.9387 11.2839 23.542 11.0559V11.0584C21.7023 9.99313 19.3604 9.91057 17.3881 11.0516H17.3854V11.0499C17.3195 11.0882 17.2518 11.1237 17.1824 11.1565C15.4386 12.2384 14.2768 14.1699 14.2768 16.3738V16.3765L14.2755 16.3757L14.2755 16.3805C14.2755 17.8756 13.0634 19.0877 11.5682 19.0877C10.073 19.0877 8.86084 17.8756 8.86084 16.3805C8.86084 15.3764 9.40751 14.5 10.2195 14.0326L10.2185 14.0321H10.2205C10.2301 14.0265 10.2398 14.0211 10.2494 14.0157C12.2033 12.873 13.2933 10.8153 13.29 8.70111L13.2928 8.70275C13.2952 7.20965 14.5064 6 16.0002 6L16.014 6.00003Z" fill="url(#paint2_linear_324_75)"/>
<path d="M13.29 8.70111L13.2886 8.70033L13.29 8.69897L13.29 8.70111Z" fill="url(#paint3_linear_324_75)"/>
<path d="M2.70735 19.0887C4.20258 19.0887 5.4147 17.8767 5.4147 16.3815C5.4147 14.8864 4.20258 13.6744 2.70735 13.6744C1.21212 13.6744 0 14.8864 0 16.3815C0 17.8767 1.21212 19.0887 2.70735 19.0887Z" fill="url(#paint4_linear_324_75)"/>
<defs>
<linearGradient id="paint0_linear_324_75" x1="31.9998" y1="13.6668" x2="26.591" y2="19.0959" gradientUnits="userSpaceOnUse">
<stop stop-color="#1A1E82"/>
<stop offset="1" stop-color="#593AB1"/>
</linearGradient>
<linearGradient id="paint1_linear_324_75" x1="4.4426" y1="26.7636" x2="19.5749" y2="11.6302" gradientUnits="userSpaceOnUse">
<stop stop-color="#01F493"/>
<stop offset="0.473958" stop-color="#5282FF"/>
<stop offset="1" stop-color="#1A1E82"/>
</linearGradient>
<linearGradient id="paint2_linear_324_75" x1="27.5608" y1="6" x2="12.4736" y2="21.0883" gradientUnits="userSpaceOnUse">
<stop stop-color="#01F493"/>
<stop offset="0.473958" stop-color="#5282FF"/>
<stop offset="1" stop-color="#1A1E82"/>
</linearGradient>
<linearGradient id="paint3_linear_324_75" x1="27.5608" y1="6" x2="12.4736" y2="21.0883" gradientUnits="userSpaceOnUse">
<stop stop-color="#01F493"/>
<stop offset="0.473958" stop-color="#5282FF"/>
<stop offset="1" stop-color="#1A1E82"/>
</linearGradient>
<linearGradient id="paint4_linear_324_75" x1="4.05598e-08" y1="19.0957" x2="5.40882" y2="13.6667" gradientUnits="userSpaceOnUse">
<stop stop-color="#1A1E82"/>
<stop offset="1" stop-color="#593AB1"/>
</linearGradient>
</defs>
</svg>
